<svg width="50" height="50"  fill="#FFFFFF" xmlns="http://www.w3.org/2000/svg" viewBox="0 0 721.15 558.9">
    <title>church-icon-2</title>
    <g id="Capa_2" data-name="Capa 2">
        <g id="Capa_1-2" data-name="Capa 1">
            <path d="M466.63,180.79q6.11-.51,12.2-1.12-37.8,1.76-75.65.5l50-2.62c2.42-.13,5.06-.35,6.8-2,1.92-1.83,2.11-4.78,2.17-7.42q.67-26.23,1.34-52.47l3.11,47.28c5.48-4.21,10.81,9.35,3.94,10l8.07,5.57-4.34,129.84,29.7,4.16c-5.51-3.74-10.27,5.77-10.27,12.43q0,116.43,0,232.87c-6.49,3.28-14.75-1-18.32-7.38s-3.7-14-3.74-21.25q-.62-126.63-1.24-253.27c-45.5-.28-76.21,4.75-78.94,57.43-3.73,71.85,25,148.64,7.09,219.37-9-4.32-19-9.22-28.78-12.72-.38-.14-.9-.32-1-.63-1.45-3.18-3.93-6.34-4-9.59-1.55-46.37,11.91-116.7-11.53-158.19a15.1,15.1,0,0,1-4.5,2.71,23.89,23.89,0,0,1-7-7.64c3.54,11.07-9.25,87-9.13,87.09a33.35,33.35,0,0,1-15.79-20.06,47.81,47.81,0,0,1-11.47,23.45c.16-4.2-4.39-6.84-8.32-8.34-21.14-8.1-43.71-12.07-64.65-20.67s-41.06-23.17-48.57-44.52c-6.72-19.11-2.31-40.07-1.47-60.31.37-8.88,0-17.89,2.27-26.49s7.53-17,15.81-20.2c14-5.42,23.73,11.32,36.15,15.09,14,4.24,39.48,3.62,50.54-8,2.77-2.89,17.25-31.76.25-25.26,17.21-6.58,38.77-2.19,54.28,7.69a77.82,77.82,0,0,0-35.11,10.07c7.37,18.9,12.75,38.34,17.89,57.92,1.86-15.44,10.43-26.8,21-37.73,12-12.4,23.9-7.78,10.54-30.71-.28-.48,6.48-1.15,6.91-1.2,3.25-.44,4.52-.15,5.15-2.94.39-1.75-1.25-5.68-1.47-7.61-2.92-24.78-7.55-49.23-1.18-73.89,4.48-17.32,11.08-34.32,12-52.18.19-3.81.32-8.08,3.1-10.68,2.6-2.42,6.57-2.44,10.11-2.22a179.05,179.05,0,0,1,34.21,5.52c-17.36-4.56-13.67,17.43-16.19,26.85-7.07,26.44.53,15.09-25.43,28.26,5.53-2.8,22,7,28.55,7.39C429.73,184.07,448.58,182.27,466.63,180.79ZM473.79,265c0-6.25,0-11.7,0-17.14,0-10.27-.3-20.55-.09-30.82.11-5.4.94-10.8,1.59-16.18s1.51-11,2.39-17.28l-6,4.17-1.83-3-1.75,2.91c-3.08-.61-5.65-1.52-8.22-1.56-11.79-.16-23.58-.11-35.38,0-1.56,0-4-1.17-4.14,2.08a13.82,13.82,0,0,1-2.35.26l1-1.72c-3-.14-5.91-.65-8.67-.26-1.55.22-4.11,1.88-4.14,2.95-.16,6.18.18,12.38.56,18.55.45,7.13,1.34,14.23,1.65,21.36s.21,14.43.15,21.64c0,4.81,3.73,10.16-3,14.1Zm-74.3,8.87c9.37-.71,18.09-1.51,26.84-2a112.53,112.53,0,0,1,12.45.26c3.34.18,6.68,1.08,10,.91,7.75-.38,15.49-1.09,23.2-1.93,1.7-.19,3.29-1.46,4.93-2.23-.2-.47-.4-.94-.61-1.41-2.85.21-5.7.58-8.56.62q-23.52.3-47,.46c-6.49.05-13,0-20.07,0ZM378.93,172l-1.22.21-2.86-3.53c-3.63,2.9-4.57,5.78-2.69,8.41l3.58-1.31.42,1-4.46,2.85,6,.34Zm-12.39,96.45a41.68,41.68,0,0,0-3.72-2c-.61-.25-1.59-.44-2-.12a2.26,2.26,0,0,0-.72,2c1.37,2.62,2.95,5.13,4.45,7.68l1.08-.26C365.94,273.26,366.25,270.79,366.54,268.44Zm30.95-105.2c.32,2.46.56,4.31.88,6.69l3.52-4.66Z" />
            <path d="M655.7,258.66c20.89,10,36.59,28,49.65,46.59-9.29-13.27-22.23-28.6-36.47-36.74,54.28,51.45,29,169.15,34.63,235.9,1.55,18.51-17.91,64-20.85,26.34v0c-2.66-34.14,11.64-87.67-.82-118-13.44,7.64-9,34.07-9.8,49.19L670,434c-.48-6.52-1.21-13.61-5.74-18.32-8-8.28-23.2-3.37-29.17,6.46s-5.44,22.14-4.71,33.62l4.08,64.1c-6-2.46-6.43-10.74-5.75-17.23,1.56-14.82,3.38-30.21-1.47-44.31S608.57,432,593.84,434.25a47,47,0,0,1,32.74,10.57,22.2,22.2,0,0,0-3.77-26.67C612,408,594.42,415,581.24,415.23c-7.5.12-15,.27-22.52.59-17.86.77-9.35,75.37-9.4,91.06,0,6.27,1.42,14.4,7.61,15.43-8.69,4.26-9.9,15.12-9.42,23.73-1.73-31.39-2.1-62.88-3-94.3a93.93,93.93,0,0,0,3.19,22.86q.72-13.11.22-26.23c-.06-1.54-.36-3.41-1.8-3.95s-2.65,2.33-1.11,2.36c4.26-26-.64-27.43-24.06-28.94-10.39-.67-6.63,123.69-6.74,140.62Q511.5,443.1,511.05,327.9a38.39,38.39,0,0,1,.66-5.08l1.2-.15c.63,1.65,1.26,3.3,1.59,4.11,10.39-.76,30.49,2.8,29.6-12.47-.86-14.75.64-28.39.64-42.9.75-4.24,22.62-9.7,26.49-11.4a53.66,53.66,0,0,0-10.92-.6,191.73,191.73,0,0,0,29.22-11.14c-42.21-2.35-72.15,29-101.2,54.51,23.28-39.54,71.14-63.07,116.67-57.37m-5.85,139.14c-.26-3.06-.68-6.11-.73-9.17-.17-9.36,0-18.73-.4-28.09-.11-2.64-1.69-5.23-2.59-7.85l-1.58,0c-.72,1.46-2,2.9-2.06,4.38-.22,6.67-.1,13.36-.1,20.37-5.69,0-11.55,3-18,.16,3.45-2.52,4.61-9.49,2.84-14.65a7.59,7.59,0,0,0-1.95.15c-5,1.66-5.38-.63-4.56-5,1.4-7.5,8-14.76,17.44-14.66A26.42,26.42,0,0,0,592,330c.78-.13,1.45-.86,2.18-1.31l-.44-1.61L548,329c3.78,27.63-.18,55.38,2.15,83.11l69.12,1.28c-.19-.4-.38-.81-.58-1.22l5.89-4.44c3.16,1.46,5.6,3.65,7.74,3.39,8.14-1,16.68,1.88,24.83-2.57L655.74,412h10.94c-.32-1.34-.65-2.72-1-4.08,4.06-2.18,5-1.75,7.16,3.3l4.7-2.56c1.41,4.88,4.23,1.76,7.15,1.8-.35-5.37-.91-10.42-1-15.48-.07-10.46.18-20.93.2-31.4q0-9.47-.24-18.92c-.17-6.32-1.16-12.7-.58-18.94.81-8.79-5-14-9.49-19.88-2.71-3.53-6.74-6.05-10.17-9l.48-.64,3.33,1.89,1.1-1L660,286.45c-.51,3.05-1.53,5.21-1,6.94,1.9,6.58.34,12.71-2,18.68-.36.93-3.1,1-4.75,1.32-1.21.26-2.46.36-3.68.59-.68.13-1.34.39-2.42.71,1.71-4.64,5.23-3.4,8.65-3.25-1.83-9.62,2-19.77-4.95-28.8-2,2.43-3.52,4.39-5.17,6.43-2.78-1.88-1.66-3.7-.1-5.45s2.95-3.13,4.8-5.06l-3-3.65-5,10.44c.07-3.45,2.27-7.37,1.14-9.66-1.25-2.55-5.53-3.61-9.77-6.06-.5,4.76-.94,8.16-1.2,11.58-.34,4.51-.62,9-.78,13.56-.13,3.51-.18,7,0,10.54.16,2.79,1.79,5.69-1.38,7.92-.36.26-.31,1.31-.21,1.95.62,3.65,1.3,7.27,1.78,9.9,1.36,1.57,2.86,2.51,2.88,3.47.24,11.9.23,23.8.36,35.69.15,13.22.41,26.43.57,39.64,0,2-.28,4.06-.43,6.09l-1.87-.15c0-2.4.12-4.8,0-7.19-.54-8.85-1.6-17.7-1.65-26.55-.07-13.89.46-27.78.88-41.67.1-3.62-.85-5.8-4.87-5.19-.15-1.3-.26-2.31-.35-3.14-5,.26-9.67.48-14.35.75s-9.49.59-14.34.9c2.32,3.27,4.82,6,6.4,9.21,2.83,5.75,2.63,8.24.07,10.56-.33-1.84-.53-3.61-1-5.31-1.49-5.94-4.61-8.88-10-9.57-11-1.42-18.68,6.26-20.74,16.13,2-.93,3.91-1.27,4.84-2.42,1.49-1.83,2.16-4.31,3.45-6.33,2.53-3.95,8.63-5.89,13-4.22,6.36,2.43,8.11,5.4,8.5,13.85.41,8.78-.13,17.64.9,26.33C603.62,380,601.88,382,599.15,384.55Zm29.12-66.82-1.47-5.26a10.8,10.8,0,0,1-.82-3c.21-6.13,3.08-41.35-1.92-37.65-.4-1.62-.74-3-1-4.15-12.79-4.25-26.2-4.31-38.62-1.72s-26,.63-37.34,8.19c2.3,4.37-6.05,18.16.9,18.57,0,2.24.23,34.13,0,34.15,4.27-.32,8.67-.75,13.08-1,8.74-.42,17.49-1.09,26.23-1,12.9.13,25.76.56,38.73-3.21l-2.59-3.48ZM513.94,329.08V414h23.65l5.95-6.37,2.17,4.87,1.24-.26c0-2.43,0-4.87,0-7.3-.24-10.29-.64-20.58-.75-30.87-.15-13.13.1-26.26-.29-39.37-.06-1.92-2.61-5.31-4.15-5.39C532.48,328.83,523.18,329.08,513.94,329.08Zm149.3-61.59c-2.48-6.29-32.7-14.68-36.47-10.92Zm-76.88-11.21c-.1-.39-.19-.78-.29-1.17-3.55.65-7.11,1.28-10.65,2-.3.06-.65.93-.58,1.36s.8,1,1.07.88C579.41,258.4,582.88,257.32,586.36,256.28Z" />
            <path d="M605.74,534.62a13.87,13.87,0,0,1,.12-3.36c.38-1.42,1.14-2.74,1-4.65L593.05,546h15.64c.1.57.21,1.14.32,1.71-1,.48-2,1.31-3.06,1.38-5.87.42-11.75.81-17.64.93-7.42.16-14.84,0-22.57,0q.32-3,.61-5.79A34.91,34.91,0,0,1,561,543c-3.79-1.59-3.19-4-2.27-7.63,1.27-5,1.2-10.57.95-15.85-.47-9.79-.37-19.45,2-29,.64-2.59.1-5.47.1-8.21a60.1,60.1,0,0,1,10.36-33.77c11.2-16.82,32.19-5.54,41.91,6.68,13.51,17,10.08,41,9.22,61.25-.28,6.81-1.16,13.59-1.73,20.39-.2,2.46-.29,4.94-.43,7.41l-1.55.36c-.48-1.14-1.4-2.28-1.38-3.4.14-12.29.65-24.58.62-36.86,0-9.6-.65-19.2-1-28.8a53.48,53.48,0,0,0-.71-9c-.36-1.67-1.9-3.08-3.68-4.34,4.21,26.29,1.82,52.44,1.48,79.78l-5.5-7.83-3.44.4Zm-9.57-30.34c-.77,1.26-1.53,2.53-2.3,3.8.14-.24,4.76,2.35,5.53,2.43,2.1-3.22,2.93-6.48,1.48-9.91C597.18,502.06,594.63,506.82,596.17,504.28Zm-2.53,37c3.18-7.09,9.63-12.44,11.14-20.42C601.19,527.73,593.42,532.38,593.64,541.28ZM579,545.71c4,0,7.71.14,11.35-.12.71-.06,1.77-1.67,1.83-2.62.08-1.11-.75-2.29-1.5-4.23l-1.21,4.39c-2-.21-3.9,0-5.43-.67C580.49,541,579.71,543,579,545.71Zm-2.56-2.51c-2.24,2.35-8-1.71-8.07,4.77l8.38-1.64Zm17.92-51.32,1.26.82c2.11-3.33,6.22-5.39,6.65-9.79l-1.13-.73Zm13.32,28L606,517.53a41.54,41.54,0,0,0,6.14-.76c.37-.09.34-1.94.37-3,0-.09-1.29-.42-1.38-.28C609.92,515.59,608.79,517.75,607.64,519.89Z" />
            <path d="M39,284.27c1.48,38.09,7.32,84.75-1.47,121.39C-5.65,374.5.21,330.4.33,282.6c0-9.28,10.53-24.46,21.48-18.05,7.66,4.49,8.64,10.42,16.7,11.59C38.67,277.69,38.83,280.49,39,284.27Z" />
            <path d="M416.24,32.8A3,3,0,0,1,413.66,35c-1,.09-1.83-.61-2.68-1-.8,2.09-.15,5.27-.56,7.61a13,13,0,0,1-3.29,7.07l4.82-.88c-1.18,1.72-.18,4.12-.76,6.12-.64,2.21-3,3.4-5.22,4.06-1.05.32-2.37.92-2.25,2a1.86,1.86,0,0,0,.46.93,5.35,5.35,0,0,0,3.94,2A3.89,3.89,0,0,0,406,64.78c-.46.91-.21,2.4.8,2.42a1.9,1.9,0,0,0,1.24-.67,1.89,1.89,0,0,1,1.24-.66c1.82.06-.15,3.41-.79,3.86-1.36,1-5.47-1-5-1.47-3,3,1.12,4.55,2.32,5.82,4.22,4.45,4.1,9.8,4.2,15.17a39.62,39.62,0,0,1-.76,6.48c-.39,2.72-1.09,5.41-1.22,8.13-.09,1.93.14,5.32.95,5.56,2.47.72,5.31.3,8,.08.25,0,.69-1.78.49-2.6-2.37-9.4.27-18.79.23-28.18,0-2.13,2.64-4.94,4.79-6.23,2-1.18,6.25,3,6.57,6.61.88,10.05,1.38,20.14,2.09,31.13l14.21-.91c.47-14,1-28.78,1.51-44.65,3.54,4.72,2.8,9,2.49,13.39-.44,6.51-.22,13-.45,19.57-.14,4.36-.57,8.71-.88,13.21-8.55,2-17.57.54-26.4,2.65-2.38.57-6.49-.77-8.94-1-2-.24-4.8.32-6.55-.9-2.3-1.61-.85-7.28-.75-9.72.06-1.25,0-2.66-.83-3.54a7.89,7.89,0,0,0-1.71-1.06c-1.64-.94-3-4.25-3.58-.68-.28,1.8.64,3.6.41,5.4a16.39,16.39,0,0,1-3.12,8c-1.68-1.75-1.68-1.75-5.28.87l-5.11-3,4.25-2.23L384.67,100c-.84,2.15-1.73,4.59-2.76,7-.2.47-.93.71-1.42,1.06-.4-.57-1.23-1.24-1.12-1.69.78-3.42,1.65-6.84,2.76-10.17.21-.62,1.62-.83,3-1.47.05-.43.2-1.61.35-2.85.41.17.78.2.88.39a118.42,118.42,0,0,0,7.6,12.49c0-3.8,1.59-39.5,6-32C392,59.08,395.26,27.08,416.24,32.8Zm8.33,75.75-3.27-5.3c-.19,2.8-.31,4.59-.48,7.18,2.44-.41,5.56,0,6.75-1.38s.44-4.38.55-6.68l-1.34-.28Z" />
            <path d="M80.69,277.29c7-.85,35.8,2,40.2-3.89.5,1.39,1,2.64,1,2.86,3.89-1.13,6.72-2.52,9.62-2.7,9.94-.61,19.9-.77,29.84-1.18,1.79-.08,3.57-.81,4.08,2,.48,2.6-3.1,21.15-10.17,26.52l0,0c-17.94,13.56-24.65-16.36-40.52-22.3C104,274.6,92.08,275.91,80.69,277.29Z" />
            <path d="M718.17,308.88c.36,4.29,1,8.57,1,12.86.14,28.32,0,56.64.22,85,.18,27,.59,54,.94,81,.2,15.28.53,30.55.76,45.83.07,5.16,0,10.32,0,15.47,0,.62-.33,1.22-1.52,2a11.8,11.8,0,0,1-1-3.11q-.51-19.07-.86-38.15c-.27-15.4-.55-30.8-.68-46.21-.14-17,.06-33.95-.2-50.92-.34-22.47-1.16-44.94-1.42-67.41-.12-10,.66-20.08,1-30.12,0-.87-.56-1.77-.51-2.63a25.15,25.15,0,0,1,.75-3.69Z" />
            <path d="M447.66,169H426.83c-.23.48-.81,1.62-1.39,2.77a37.13,37.13,0,0,1-1.51-22.65c.16-.65.7-1.34.57-1.9-1.42-6.22,3.49-9.41,7-12.32,5.76-4.79,12.51-1.89,14.24,5.25A89.76,89.76,0,0,1,447.66,169Zm-4.84-2.38,2.06-.13a53.47,53.47,0,0,0-2.61-25.91C442.71,149.28,441.49,158.05,442.82,166.65Z" />
            <path d="M59.83,390.5c-1.86-4.07-1.56-13.44-1.6-15.46-.29-14.29-.1-28.63.66-42.89.46-8.76.29-17.53.49-26.29.11-4.61.13-9.31.69-13.89.42-3.47,3-8.46,2.56-11.8a543,543,0,0,1,4.88,58.91c.2,9.3-1.38,18.79-2.06,28.05-.4,5.39.33,10.82-.19,16.22-.17,1.71-.74,8.58-2.84,9C61.27,392.58,60.44,391.82,59.83,390.5Zm3.11-40.67h1V338.3l-1,0Z" />
            <path d="M447.68,551.33l-4.55-5.39c-.11.61-.19,1-.23,1.34-.17,1.57-.33,3.14-.49,4.71-1.84-1.14-4.73-1.9-5.3-3.48-1.05-3-1-6.45-1-9.72-.08-7.1.19-14.21.07-21.32-.1-5.9,2.16-13.45,7.84-14.87a16.88,16.88,0,0,1,4.69,12.48c-.19,10.33-.05,20.65-.13,31A36.72,36.72,0,0,1,447.68,551.33Z" />
            <path d="M147.42,220.85c-.23-2.22.19-5.23-.75-7.3-.77,1.69.35,5.75-.37,6.82-1.57,2.34-4.26-1.86-3.89-4.66,1.22-9.33,2.38-18.68,3.72-28a15,15,0,0,1,1.93,8.25,7.24,7.24,0,0,1,9.83,2.35,6.51,6.51,0,0,1,1.24-.12,11.37,11.37,0,0,1,4.76.55c3,1.29,3.11,5.23,3.25,8,.15,3.08-1.76,7-2.65,9.95a15.66,15.66,0,0,1-1.22-10.64c-1.47,6.73-3.77,14.45-10.18,17C148.69,224.75,147.67,223.27,147.42,220.85Z" />
            <path d="M516.87,516.83c.66-1.51,1.44-2.48,1.45-3.45.08-6.7.06-13.4-.1-20.1,0-1.89-1.13-3.83-.9-5.65.54-4.42,9.29-8.06,13.55-7.11,7.28,1.64,7.15,7.1,7.4,12.34.31,6.47.09,13,.05,19.45,0,3.07-1.58,5.11-4.67,5.24-4.62.21-9.27.09-13.9,0A13.44,13.44,0,0,1,516.87,516.83Zm6.07-2.18a8.47,8.47,0,0,0,3.13-.26c1.81-.75,4.86-1.89,4.91-3a98.77,98.77,0,0,0-.73-16.75c-.27-2-2.43-5.55-3.43-5.44-3.43.35-3.75,3.69-3.86,6.6-.1,2.49,0,5,0,7.46Z" />
            <path d="M160.33,271H157l-2.4-9.25-3.28,2.09c-.57-2.74-1.06-5.1-1.31-6.27-3.32-1.56-6.38-2.21-8.25-4.06-2.27-2.25-4.24-3.59-7.13-2.32-1.11-2.42-2-4.68-3.16-6.81-1.77-3.29-.34-6.09,3.41-6.46,1.89-.19,4.43-2.39,4.55.8L150.3,240c0,.24.28,1.32.65,3l2.58-4.79,1.49.13c1.55,4.9,3.39,9.73,4.55,14.72.76,3.31.6,6.85.74,10.29C160.41,265.89,160.33,268.38,160.33,271Z" />
            <path d="M163.16,172.31a3,3,0,0,0,2.08-1.19c3.86-4,7-8.38,11.52-11.81s9-6.88,13.77-10a157.27,157.27,0,0,1,18.75-10.61q4.93-2.37,10-4.39c2.28-.9,4.71-1.51,6.82-2.8,2.49-1.53,2.54-3.74,2.32-6.46-.35-4.49-.29-9.16,1.53-13.27q1.15,10.1,2.3,20.19L248,132,230.78,134l1.11,4.42c-2.14.22-4.27.47-6.41.61a19.48,19.48,0,0,0,2.36-3.61c-3.27-.59-7.88,1.16-10.89,2.39a68.63,68.63,0,0,0-11.42,6.43c-18.38,11.94-37.17,24.39-49.73,42.35a3.55,3.55,0,0,1-.63-2.36" />
            <path d="M669.72,522.66c-1.64-1.24-1.46-1.13.27-3.77a8.37,8.37,0,0,0,.8-4.31c.13-15.7.14-31.4.34-47.1,0-1.74,1-3.47,1.57-5.2.56.05,1.24.14,1.24.14v54.87a24,24,0,0,0-1.26-3.77c.32,5.52.31,5.39,5.26,5.09.74,0,2,1.75,2.22,2.84.12.72-1.21,2.33-2,2.43a4.39,4.39,0,0,1-3.2-1V542h-6v-9.64c-.2,0,0,0,.27-.07l.69,2.58.69-.11C670.32,531,670.05,527.24,669.72,522.66Z" />
            <path d="M280.13,138.93c3.78,2.07,8,5.34,12.34,5.77,4.78.48,7.72,1,11.46,4.31,4.21,3.68,7.77,8.08,12,11.74a46.83,46.83,0,0,1,5.31,4.83,9.53,9.53,0,0,1,2.58,6.52m-6.52-6.2c-12.05-10.38-25.36-20.69-39.73-27.65-2.5-1.21-4.72-2.54-6.19-5l17.71,6.06m5.16,6.89,11.35,7.1C303.43,148.8,300,146.67,294.26,146.2Z" />
            <path d="M94.39,280.3a110.2,110.2,0,0,1,6.94,9c.51.81-.54,2.62-.87,4a31.36,31.36,0,0,1-3.13-2.42,8.52,8.52,0,0,1-1.19-2.21c-3.89,3.79-3,13.21-12.71,10.39-.65,6.42-1.33,13.24-2,20.05l-1.43.43c-.83-1.74-2.33-3.44-2.39-5.2-.3-8.27-.24-16.55-.18-24.82a3,3,0,0,1,1.48-2.37,4,4,0,0,1,3.27.41,38.58,38.58,0,0,1,4.18,4.8Z" />
            <path d="M438.36,43.65l4.1,4.23,1-1.06.84.23c-.21,1.71-.42,3.43-.68,5.49,5.09,1,2.44,5.73,4.31,8.8V50.55l1.44-.07c.32,4.2.68,8.4.87,12.61,0,.37-1.52,1.25-1.67,1.12-4-3.39-6.4.15-9.32,1.89a3.65,3.65,0,0,1-3.27-.24c-2.42-1.71-4.08-1-4.36,1.55-.26,2.42-1.37,2.59-3.23,2.56-4.22-.07-8.44,0-12.91,0-.12-1-.23-1.87-.36-2.87l-3,.42-.48-1.18,5-1.75-3.56-2.2.25-1.22c1.14.19,2.7,0,3.35.65,2.9,3,3.79,1.72,3.85-2.1,4.11.73,8.88.25,11.59,2.38,3.86,3,6.16,1.82,9.25-.5-.84-3-1.7-6-2.46-8.73,2.77-3.29-.37-6.29-.46-9.3ZM417.3,66.25c3.37,2.41,9.61,2,13.19-.31,0-.4-.07-.8-.11-1.2Z" />
            <path d="M219.16,211.82c-1.39,4.77-4.14,13.13-3.1,20.42a31.1,31.1,0,0,1-3.05-15c.16-9.19-1.09-18.21-1.64-27.31-.24-3.89-2.88-4.71-5.56-5.81l-4.22,6.07c-.44-2.59-.7-4.11-.8-4.65l5.83-6.1c4.24,5.5,8.54,11,12.73,16.59a4.89,4.89,0,0,1,.52,2.57c.13,3.27.26,6.55.21,9.82a13.15,13.15,0,0,1-.87,3.2Z" />
            <path d="M646.39,496.65c-1.39-2.13-3.52-3.93-3.27-5.31a21.89,21.89,0,0,1,3.74-9c1.26-1.66,1.17-4.94,4.77-4.83,4.38.14,7.78,3.74,7.92,9.51.15,6.42,0,12.83.11,19.25.05,2.76.47,5.52.73,8.28l-1.12.36c-.63-.7-1.26-1.39-1.78-2l-4.94,1.36-.57-1.58,4.43-1.84c-1.13-9.23.33-19-5.39-28.2Z" />
            <path d="M148.12,382l-.23-3.76c-1.45-.53-3.33-.7-3.57-1.41a26.06,26.06,0,0,1-1.1-6.93c-.05-1.06,1-2.15,1-3.25.29-7.26.32-14.53.74-21.78.1-1.72,1.39-3.37,2.25-5.34,6,6.06,5.5,13.22,5,20.13s-1.79,13.65-2.77,20.46C149.41,380.44,149,380.74,148.12,382Z" />
            <path d="M127.62,250.2l3.1-2.71c.33,3.75.34,3.82-2.29,4-19.6,1.7-39.21,3.18-58.76,5.3-2.9.32-6.82-2-9.05,1.93l-5.13-3.46-8.63-1.2.12-1.49C74,254.14,100.83,252,127.62,250.2Z" />
            <path d="M203.94,200.83l-1.59,1.49-4.77-3.88c-1.15,8.28-2.87,15.45-1,23.48,1.65,7.17.42,15,.14,22.56,0,.8-2.24,1.52-3.4,2.24.26-2.85.72-5,.58-7.07-.49-8-1.74-15.94-1.62-23.9.09-6.07,1.8-12.13,2.76-18,9-1.63,9-1.63,10.46,1.08,3.69-2.92,4.4.28,5.25,3.18l-2.64-1.56-2.55,4.85C204.86,203.4,204.47,202.32,203.94,200.83Zm-9,26-1-.07V236h1Z" />
            <path d="M273.69,202.12a51.18,51.18,0,0,0,10.2-4.54,51.07,51.07,0,0,0-8.15-3.32c3.55,1.29,11.06-4.15,12.69,1.1,2.33-.47,4.13-1.58,6.28-2.52,10.93-4.76-1.5,10-5.18,12.19a4.24,4.24,0,0,1-2.36.07C282.47,204.53,277.82,204.93,273.69,202.12Z" />
            <path d="M540.22,274.24c-.39,1.22-.48,2.66-1.19,3.63-4.85,6.58-10,12.93-14.69,19.63-3.8,5.47-7,11.38-10.59,17-.62.95-2.15,1.31-3.77,1.36a121.49,121.49,0,0,1,28.73-42.51C539.21,273.63,539.71,273.94,540.22,274.24Z" />
            <path d="M209.55,218.29c0,1.24.33,2.62-.1,3.69a4.78,4.78,0,0,1-2.51,2.73c-4.22,1.14-9.31-4.1-8.52-8.44a24.14,24.14,0,0,0,0-3.29c.06-1.86-1.46-4.93,1.7-4.91a12.11,12.11,0,0,1,7.7,3c1.61,1.53,1.69,4.65,2.44,7.07Z" />
            <path d="M136.94,371.4c2,.73,3.15,1.9,3,3.89-.12,1.21-9.8,7.39-11.22,8.06-1.18-.75-1.32-1.74-1.78-3.08a21.14,21.14,0,0,0-2.7,3.13c-.27-1.28-5.67-13.61-4.08-13.35C123,370.52,132,369.58,136.94,371.4Z" />
            <path d="M274.27,219.71c.22-5.91,3.11-10.13,6.85-10,2.11.09,5.75,5.86,5.59,8.89-.16,3.19-3.69,7.6-6,7.48C275.85,225.84,274.11,224.12,274.27,219.71Z" />
            <path d="M441.63,70.06c1.12,4.19,3.8,8,2.93,13.56l-4.77-3.38c-3.63,8.86,2.3,18.69-2.06,28.36-.77-1.26-1.54-1.95-1.57-2.67-.33-6.92-.78-13.84-.68-20.76A49.54,49.54,0,0,1,437.3,74c.41-1.6,1.88-2.94,2.87-4.4Z" />
            <path d="M241,96.08c-.27-1.68-2-10.35-4-10.63,1.59.22,8.21,2.35,8.05,4.68.16-2.25.29-4,.42-5.84l1.4-.39q1.46,5,2.93,10l1.15,0q1.47-2.49,2.95-5c-.56.94,3.2,3,.36,5.76C249,95,246.27,97.39,241,96.08Z" />
            <path d="M208.18,240.9l1.52,1.89,2-2.35c9.49,3.82,18.72,2.41,28.09,2.09,2.51,5,1.85,6.56-3.53,6.65,1.37-4.59-.76-4.27-4.5-4.06-9.88.55-19.81.27-29.72.25a5.38,5.38,0,0,1-2.38-1c-.09-.05.2-1.24.5-1.33a5.76,5.76,0,0,1,2.54-.26C204.72,243.06,207.19,245.14,208.18,240.9Z" />
            <path d="M331.93,187.13c.79,1.13,1.52,2.31,2.39,3.37.6.73,1.75,1.18,2,2a41.07,41.07,0,0,1,1.25,5.45L333,196l-3.53,2.53-3.76-6.42,1.77-.79c.83-5.58,1.59-10.74,2.36-15.89l1.53-.35c.48,1.08,1.38,2.17,1.36,3.24,0,2.94-.48,5.87-.76,8.8Z" />
            <path d="M250.42,242.13l48.94-1.89c0,.55.05,1.1.08,1.65-16.26,2-32.65,1.24-48.94,2.53C250.47,243.66,250.44,242.89,250.42,242.13Z" />
            <path d="M235.83,97c-10.91-2.12-8-.94-12.64-11.73,1.59,0,9.45,4.86,6.76,6.72,1-.67,2.2-1.72,2.35-1.58A9.92,9.92,0,0,1,235.83,97Z" />
            <path d="M458.06,111h-7.49c.47-2.19,1.76-4.54,1.15-6.17-1.5-4,1.23-6.16,2.85-8.77.5-.8,2.21-.86,3.36-1.25.43,1.29,1.26,2.59,1.21,3.86C459,102.67,458.47,106.63,458.06,111Z" />
            <path d="M332.85,197.57c.37,7.62.68,13.92,1,20.79l2.08-1.93V228.2l-1.39.51c-1.38-2.68-3.79-5.3-3.95-8.06-.39-6.54.24-13.15.57-19.73C331.21,200.12,331.92,199.36,332.85,197.57Z" />
            <path d="M262.64,206.15l4.3.91v29.47l-1.34.36a7.75,7.75,0,0,1-1.16-2.51c-.38-6.87-.58-13.75-.93-20.62-.13-2.57-.51-5.13-.77-7.7Z" />
            <path d="M295,204.36c.63,1.31,1.68,2.57,1.81,3.93.66,6.68,1.17,13.39,1.47,20.1.05,1.11-1.2,2.28-1.85,3.43-.79-.95-2.11-1.82-2.27-2.86a49.39,49.39,0,0,1-.17-7.31q0-8.37,0-16.75Z" />
            <path d="M639.32,424.23c3.75,10.79,2.79,20.06-1.38,31.44V424.46Z" />
            <path d="M190.64,208.2c-4.07,8.48-.77,17-.1,25.44l-1.37.62c-1.24-2-3.12-3.83-3.57-6a28,28,0,0,1-.5-10.53c.61-3.47,2.59-6.69,4-10Z" />
            <path d="M423.56,14.21c.51,5.17,1,9.94,1.46,14.71l-.68.17L423.45,26l-.82.1.82,11-.88.12c-.43-3.41-.92-6.81-1.28-10.23a76.42,76.42,0,0,1-.83-11.27c.07-1.64,1.83-3.19,2.24-3.84l6.43-.75L427.54,16Z" />
            <path d="M222.4,210.89c1.47,1.74,2.78,2.57,2.78,3.4a126.91,126.91,0,0,1-1.2,19.24C219.52,226.68,221.13,219.5,222.4,210.89Z" />
            <path d="M416.74,32.88c-4.23-4.15-.79-9.4-1.91-14-.48-2,.2-4.31.58-6.44.12-.65,1-1.16,2.28-2.51.58,8.7,1.09,16.27,1.64,24.41l-2.74-1.55Z" />
            <path d="M416.66,51.64c2.28,2.11,6.77.77,11-3.35l3.74,2.86-.26-5.73a26.51,26.51,0,0,1,2.44,4c.36,1,.75,2.66.24,3.24a4.39,4.39,0,0,1-3.47,1.3c-3-.56-5.53-.93-8.16,1.48C420.3,57.18,416.8,54.57,416.66,51.64Z" />
            <path d="M560.39,449.58c6.28-9.22,15.46-14,25.84-16.94a3.38,3.38,0,0,1,2.55,1C577.46,435.93,568.83,442.51,560.39,449.58Z" />
            <path d="M461,122.54c-5.22,2.65-10.94,3.14-16.75,3.06-.46,0-1.3-1.16-1.25-1.72a2.25,2.25,0,0,1,1.57-1.46,25,25,0,0,1,4.17-.07c-.06-.91-.12-1.93-.25-3.9,2.87,2.68,5.23,4.15,8.43,1.92.8-.56,2.72.47,4.13.76Z" />
            <path d="M134.33,350.92l1.55-3.28,1.06.24V361h-5c0-3.33,0-7,0-10.62,0-.37.63-.73,1-1.09Z" />
            <path d="M190.29,205.85c-2.09-2.53-4-4.61-5.62-6.91A18.7,18.7,0,0,1,183,194.8c2.48-.94,3.43-5.57,7.76-2.88C183.39,196.41,193.58,200.54,190.29,205.85Z" />
            <path d="M243.94,120.84v7.32c-2.64-1.38-3.53-12.45-1.92-18.86,2.57,1.18,4,6.4,3.62,14.26-.59-1.44-.87-2.1-1.14-2.77Z" />
            <path d="M554.94,454.5V429.64C558.09,432.05,558,451.64,554.94,454.5Z" />
            <path d="M629.8,523.33c.77.63,2.32,1.28,2.46,2.15.78,5,1.46,10-.22,14.95-.24.7-1.23,1.16-1.88,1.73-.41-.79-1.21-1.59-1.17-2.36.14-3.4.57-6.79.79-10.19C629.9,527.82,629.8,526,629.8,523.33Z" />
            <path d="M250.14,107.26c.32,1.46.75,2.9,1,4.38.58,4.3,1.16,8.61,1.52,12.94.07.84-.87,1.77-1.34,2.66-.62-.59-1.72-1.14-1.77-1.78-.48-5.92-.78-11.85-1.14-17.78Z" />
            <path d="M269.9,191.07l4.44-7.72,2.21,2.28,1.21-8.41c2.31.81,4.88,1,1.88,4.14-.66.7.13,2.77-.49,3.78-1.16,1.74-2.09,3.72-3.56,5.13-1.22,1.17-3.08,1.68-4.66,2.48Z" />
            <path d="M340.31,236.2l-20.17,3.15c.33-1.58.38-2.48.55-2.5,6.47-.86,12.95-1.64,19.43-2.43C340.19,235,340.25,235.61,340.31,236.2Z" />
            <path d="M438.68,43.54c-5-.38-7.16-5.44-12.27-6.58l6.39-3.35c1.82,3.16,3.8,6.6,5.77,10Z" />
            <path d="M125.87,352.44c.36-1,.78-2.08,1.19-3.17,1,.94,2.51,1.74,2.77,2.85a34.3,34.3,0,0,1,.65,7.59c0,.54-.95,1.44-1.53,1.5s-1.39-.8-1.55-1.41C126.79,357.54,126.42,355.21,125.87,352.44Z" />
            <path d="M270,213c3.28,5.4.45,11.26,1.26,16.86C270.41,224.28,267.21,218.93,270,213Z" />
            <path d="M605.74,535.07l.14,0c-.74,2.73-1.11,5.65-2.4,8.09-.45.85-3.15.5-5.56.79C599.63,539.07,601.24,535.75,605.74,535.07Z" />
            <path d="M234.09,119.68c-1.41-2.93-1.15-5.52-1.15-8.72C232.94,114.13,234.7,116.48,234.09,119.68Z" />
            <path d="M125.53,339c5.83,5.27-5.82,9.24-4.5,1.45l2.22,1.92c-.59-.51-.72-4.86-1-5.95C123.31,337.3,124.5,338,125.53,339Z" />
            <path d="M270.94,133.17l-13.62-.48c1.85-3.12,3.6-4.36,6.47-2,1,.8,3,.29,4.63.28s3.21-.14,2.4,2.31Z" />
            <path d="M54.68,280.94c-4.79,2.73-9.37,1.22-14.25,2C42.78,279.47,49.12,278.68,54.68,280.94Z" />
            <path d="M331.94,187.16c1.58-2.29,3.13-4.6,4.76-6.85.25-.35,1-.75,1.25-.62a2.11,2.11,0,0,1,1.11,1.35c.11,2.55.05,5.11.05,7.74-3.05.76-4.18-4.38-7.18-1.66Z" />
            <path d="M123.94,351.09V363.7C121.47,363,120.83,355.53,123.94,351.09Z" />
            <path d="M416.33,1.15C418.07.46,421.94-.7,423,.56l.05.06c.46.66.47,1.94-.23,4.23.91-3-5.28-3.68-7-3.46Z" />
            <path d="M325.15,290.25q-.34,6.28-.7,12.56l-1.76-.11q.31-6.31.64-12.62Z" />
            <path d="M484,276c4,0,16.42,1,20,1,0,.45-8.86-.1-8.83.35-3.47.12-14.7-.33-18.17-.35C476.65,277,484.13,276.38,484,276Z" />
            <path d="M318.55,242.45c-2.47,1.18-4.91,2.46-7.46,3.44-.39.15-1.55-1-1.88-1.73-.18-.39.58-1.72,1.05-1.8,2.55-.42,5.15-.59,7.73-.85Z" />
            <path d="M262.79,206.06c-.6-.95-1.89-2.08-1.69-2.81a25.94,25.94,0,0,1,4.1-8.72q-1.24,5.81-2.51,11.62Z" />
            <path d="M409.26,7.9c1.23-.85,2.37-2.17,3.7-2.41a6.38,6.38,0,0,1,4.58,1.3l-7.62,2Z" />
            <path d="M58.75,391.14c3.06,3,3.21,5.77-.45,8.26.23-3.14.42-5.66.59-8.19Z" />
            <path d="M131,337.75c3.93-1.15,4.9.17,4,6Z" />
            <path d="M413.24,9.66a32.44,32.44,0,0,1,.46,4.59,15.46,15.46,0,0,1-2.76.43V9.88Z" />
            <path d="M422,247.49c0-7,0-13.48,0-20a18.23,18.23,0,0,0-.36-4.05c-2.21-9.34,3.35-20.1,12-24.15,5.4-2.52,12,1.88,14.45,8,5.56,13.81,2.53,28,2.54,42,0,7.32-5,9.51-12,6.6-2.23-.93-3.83-1.82-4.68-4.43-1.44-4.4-4.37-5.42-9-4A13.81,13.81,0,0,1,422,247.49Zm26.93-10.75,1,0V220h-1Z" />
            <path d="M651,320.13c2.95-.05,5.91.06,8.84-.18,4.18-.34,8.33-.94,13.15-1.49v84.17c-.53,0-.85.06-1.16.09.14,0-2.17-26.43-2.61-28.36a9.21,9.21,0,0,1-2.38,4.29,7.8,7.8,0,0,1-2.38-3.16c.53,1.29-.61,3.1-1.52,3.76,2-2.11-1-24-1.8-27-.74-2.84-2.62-5.55-5.4-6.5a8.14,8.14,0,0,1-2.29-.89,1.57,1.57,0,0,1-.54-2.13,1.89,1.89,0,0,1,.83-.52c4.45-1.64,6.77,1.49,8.41,5,2.25,4.81,4.06,10.92,7.38,15,3.33-12.05.46-29,.46-41.83-4.07.61-9.07,1.4-14.1,2-1.94.23-4.63,1.52-4.85-2.22Z" />
            <path d="M554.15,343.64a17.91,17.91,0,0,1,1,4.15c0,11.28-.17,22.55-.12,33.83,0,3.95.52,7.9.81,11.85l-1.5.29c-.62-2.71-1.76-5.41-1.76-8.12,0-12.27.31-24.54.47-36.81,0-1.64-.18-3.28-.28-4.92Z" />
            <path d="M596.51,385.83l-20,2.67C578.59,383.73,590.07,382.19,596.51,385.83Z" />
            <path d="M653,338.92c-3.15,3.09-6.56,6.06-4.61,11.26l-3.36.29C643.79,344.33,648.49,337.53,653,338.92Z" />
            <path d="M651,320.06c-.44.33-.85.89-1.32,1a153.28,153.28,0,0,1-16.88,1.79c5.86-1.94,11.64-4.33,18.14-2.66A.68.68,0,0,0,651,320.06Z" />
            <path d="M600.5,297.17c-.42-2.52-.85-5.05-1.28-7.57l-.84.09c.33,3.21,1.09,6.45.87,9.62v.13a98.32,98.32,0,0,1-3.09,18c.2-.73-5.21-29.68-5.21-36.15l-4.57-.63c-.14-.51-.43-1.16-.31-1.24.94-.68,2-1.26,3-1.87,1.24,3.34,8.88-5.16,7.11,2.84,1.49,1.64,3.1,2.6,3.33,3.82.79,4.26,1.11,8.6,1.6,12.91Z" />
            <path d="M602.61,276.45l-2.07-2.65-1.76,2.72c-3.87-5.08-8.55-4.3-13.47-2.61s-8.68,6.08-8.41,10.74l-3.57-1.26c2.28-7.63,11-16.16,15.95-15.63C593.85,268.25,602.54,273.53,602.61,276.45Z" />
            <path d="M578.62,310.28c.21-2,.35-3.94.65-5.89.79-5.11,2.27-10.23,2.1-15.3-.06-1.56-.53-3.27.13-4.87.21-.51,1.09-.76,1.85-1.24.71,9.74.11,18.86-3.71,27.54Z" />
            <path d="M521.83,387h6.52c.29-4.86.7-9.66.84-14.46.14-5.06.17-10.12,0-15.17-.21-5.95-5-8.53-10-5.55-1.76-4.71,2.09-7.22,13.32-8.66-2.9-5.65-6.89-5.49-17.07-.37,1.45-3.91,4.2-5,7.87-5.35,7.73-.81,13.37,1.81,16,8.22a14.59,14.59,0,0,1,.8,4.82c0,.58-.78,1.2-1.21,1.8a9.88,9.88,0,0,1-1.17-2.06,33.29,33.29,0,0,0-2.44-6.89c.2,10.7.24,21.41.65,32.11.34,9.28-2.47,15.57-14,12.76C521.9,387.83,521.86,387.43,521.83,387Z" />
        </g>
    </g>
</svg>